# xmcd
#
# Track frame offsets:
#	150
#	14378
#	28089
#	47372
#	64837
#	80200
#	99742
#	113825
#	134411
#	152546
#	170287
#	185779
#	203963
#	218679
#	232754
#	248836
#	264346
#	282477
#	296548
# Disc length: 4168 seconds
# Revision: 1
# Processed by: cddbd v1.5.1PL2 Copyright (c) Steve Scherf et al.
#
# Submitted via: libkcddb 0.21
#
DISCID=10104613
DTITLE=a - a
DYEAR=1900
DGENRE=Unknown
TTITLE0=Bubba Shot The Jukebox
TTITLE1=Travis Tritt - T-R-O-U-B-L-E
TTITLE2=Cotton Eye Joe (Techno Remix)
TTITLE3=Redneck Yacht Club
TTITLE4=Fishing In The Dark
TTITLE5=Daddy Won't Sell The Farm
TTITLE6=Kerosene
TTITLE7=Copperhead Road
TTITLE8=Boondocks
TTITLE9=Miss Me Baby
TTITLE10=Good Ride Cowboy
TTITLE11=Chicks Dig It
TTITLE12=I Like My Women a Little on th
TTITLE13=she don't tell me to
TTITLE14=Just To Be Your Man
TTITLE15=When You Were Cheating
TTITLE16=Who's Your Daddy
TTITLE17=Jack Daniels
TTITLE18=Good Morning Beautiful
EXTD=a
EXTT0=
EXTT1=
EXTT2=
EXTT3=
EXTT4=
EXTT5=
EXTT6=
EXTT7=
EXTT8=
EXTT9=
EXTT10=
EXTT11=
EXTT12=
EXTT13=
EXTT14=
EXTT15=
EXTT16=
EXTT17=
EXTT18=
PLAYORDER=
